<?xml version="1.0" encoding="utf-8"?>
<!-- Generator: Adobe Illustrator 21.1.0, SVG Export Plug-In . SVG Version: 6.00 Build 0)  -->
<svg version="1.1" id="Layer_1" xmlns="http://www.w3.org/2000/svg" xmlns:xlink="http://www.w3.org/1999/xlink" x="0px" y="0px"
	 viewBox="0 0 315 70" style="enable-background:new 0 0 315 70;" xml:space="preserve">
<style type="text/css">
	.st0{fill:url(#SVGID_1_);}
	.st1{fill:#FFFFFF;}
	.st2{clip-path:url(#SVGID_3_);}
	.st3{opacity:0.2;fill:#FFFFFF;enable-background:new    ;}
	.st4{fill:none;}
	.st5{font-family:'AzoSans-Light';}
	.st6{font-size:32px;}
</style>
<title>MyEtherWalelt Logo</title>
<linearGradient id="SVGID_1_" gradientUnits="userSpaceOnUse" x1="57.5519" y1="67.5987" x2="-0.668" y2="-18.0813" gradientTransform="matrix(1 0 0 -1 0 72)">
	<stop  offset="0" style="stop-color:#1ABC9C"/>
	<stop  offset="1" style="stop-color:#1A5DAF"/>
</linearGradient>
<circle class="st0" cx="36.8" cy="35" r="32"/>
<path class="st1" d="M23.8,27.5"/>
<g>
	<defs>
		<circle id="SVGID_2_" cx="36.8" cy="35" r="32"/>
	</defs>
	<clipPath id="SVGID_3_">
		<use xlink:href="#SVGID_2_"  style="overflow:visible;"/>
	</clipPath>
	<g class="st2">
		<path class="st3" d="M65.7,35.3l-10,24.5l-5.3-12.5l4.8-11.8h-2.6l-3.9,9.8l-3.9-9.8h-2.6L47,47.3l-5.3,12.5L31.7,35.3l-5-11.9
			l5.2-12.5l10,24.5h3L33.1,7.7h-2.4l-5.8,13.6L19,7.7h-2.4L5,35.4h2.9L18,10.9l5.3,12.5l-4.8,11.8H21l3.9-9.8l3.9,9.9L40.5,63h2.4
			l5.8-13.7L54.5,63H57l11.7-27.7C68.7,35.3,65.7,35.3,65.7,35.3z"/>
	</g>
</g>
<rect x="85" y="20" class="st4" width="230" height="50"/>
<text transform="matrix(1 0 0 1 85 44.4479)" class="st1 st5 st6">MyCurioWallet</text>
<path class="st1" d="M57.6,34.1c-0.9-1.6-1.9-3.2-3.2-4.7c0.8-3,1.9-7,2-7.5c0.5-1.9,0-3.8-1.3-5.2c-1-1.1-2.5-1.7-3.9-1.7
	c-1.4,0-2.7,0.5-3.7,1.5l-4.1,3.9c-2.4-1.2-4.8-1.8-6.8-1.8s-4.4,0.6-6.8,1.8l-4.1-3.9c-1-1-2.3-1.5-3.7-1.5c-1.5,0-2.9,0.6-3.9,1.7
	c-1.3,1.4-1.8,3.4-1.3,5.2c0.1,0.4,1.2,4.5,2,7.5c-1.2,1.5-2.3,3.1-3.2,4.7c-1.6,3-2.4,5.8-2.4,8.5v1.3l23.5,9.3l23.5-9.3v-1.3
	C60.1,39.9,59.2,37.1,57.6,34.1z M20.6,19.3c0.3-0.4,0.8-0.6,1.3-0.6c0.5,0,0.9,0.2,1.2,0.5l3.3,3.1c-1.7,1.1-3.3,2.4-4.8,3.9
	c-0.7-2.5-1.3-4.9-1.4-5.2C20.1,20.4,20.2,19.7,20.6,19.3z M21.2,32.1h4.4c2,0,3.8,1.4,4.2,3.3c0.6,2.8-1.5,5.3-4.1,5.3h-8.8
	C17.4,38,18.9,35,21.2,32.1z M25.8,44.4c4.7,0,8.5-4.3,7.7-9.4c-0.6-3.9-4.1-6.7-7.9-6.7h-0.9c3.4-3.1,7.1-5.3,10.2-5.9v5.3h3.6
	v-5.3c3.1,0.7,6.8,2.8,10.2,5.9h-0.9c-3.9,0-7.3,2.8-7.9,6.7c-0.8,5,3,9.4,7.7,9.4h1.2l-12,4.8l-12-4.8H25.8z M52.5,19.3
	c0.4,0.5,0.6,1.1,0.4,1.7c-0.1,0.3-0.7,2.8-1.4,5.2c-1.6-1.5-3.2-2.8-4.8-3.9l3.3-3.1c0.3-0.3,0.8-0.5,1.2-0.5
	C51.7,18.7,52.2,18.9,52.5,19.3z M47.6,32.1H52c2.3,2.9,3.8,5.9,4.3,8.6h-8.8c-2.6,0-4.7-2.5-4.1-5.3C43.7,33.5,45.6,32.1,47.6,32.1
	z"/>
<ellipse class="st1" cx="26.4" cy="36.4" rx="1.8" ry="1.8"/>
<path class="st1" d="M39,43.8c0-0.7-0.5-1.2-1.2-1.2h-1.2h-1.2c-0.7,0-1.2,0.6-1.2,1.2c0,1.2,2.4,2.5,2.4,2.5S39,45.1,39,43.8z"/>
<ellipse class="st1" cx="46.8" cy="36.4" rx="1.8" ry="1.8"/>
</svg>
