<?xml version="1.0" encoding="utf-8"?>
<!-- Generator: Adobe Illustrator 21.1.0, SVG Export Plug-In . SVG Version: 6.00 Build 0)  -->
<svg version="1.1" id="Layer_1" xmlns="http://www.w3.org/2000/svg" xmlns:xlink="http://www.w3.org/1999/xlink" x="0px" y="0px"
	 viewBox="0 0 315 70" style="enable-background:new 0 0 315 70;" xml:space="preserve">
<style type="text/css">
	.st0{fill:url(#SVGID_1_);}
	.st1{fill:#FFFFFF;}
	.st2{clip-path:url(#SVGID_3_);}
	.st3{opacity:0.2;fill:#FFFFFF;enable-background:new    ;}
</style>
<title>MyEtherWalelt Logo</title>
<linearGradient id="SVGID_1_" gradientUnits="userSpaceOnUse" x1="57.5519" y1="67.5987" x2="-0.668" y2="-18.0813" gradientTransform="matrix(1 0 0 -1 0 72)">
	<stop  offset="0" style="stop-color:#1ABC9C"/>
	<stop  offset="1" style="stop-color:#1A5DAF"/>
</linearGradient>
<circle class="st0" cx="36.8" cy="35" r="32"/>
<path class="st1" d="M23.8,27.5"/>
<g>
	<defs>
		<circle id="SVGID_2_" cx="36.8" cy="35" r="32"/>
	</defs>
	<clipPath id="SVGID_3_">
		<use xlink:href="#SVGID_2_"  style="overflow:visible;"/>
	</clipPath>
	<g class="st2">
		<path class="st3" d="M65.7,35.3l-10,24.5l-5.3-12.5l4.8-11.8h-2.6l-3.9,9.8l-3.9-9.8h-2.6L47,47.3l-5.3,12.5L31.7,35.3l-5-11.9
			l5.2-12.5l10,24.5h3L33.1,7.7h-2.4l-5.8,13.6L19,7.7h-2.4L5,35.4h2.9L18,10.9l5.3,12.5l-4.8,11.8H21l3.9-9.8l3.9,9.9L40.5,63h2.4
			l5.8-13.7L54.5,63H57l11.7-27.7C68.7,35.3,65.7,35.3,65.7,35.3z"/>
	</g>
</g>
<g>
	<path class="st1" d="M93.3,29.6c-1.2-1.7-2.4-3.4-3.5-5l-0.1,0c0,1.9,0,3.9,0,5.9v13.9h-1.9V21.3h1.9l9,12.9l9-12.9h1.9v23.2h-2
		V30.5c0-2,0-4.1,0-5.9l-0.1,0c-1.1,1.6-2.3,3.4-3.5,5l-5.5,7.9L93.3,29.6z"/>
	<path class="st1" d="M126.8,28.7h2l-10.9,22.8h-2l4.3-8.7l-6.7-14h2.1l3.1,6.7c0.9,1.8,1.7,3.6,2.4,5.2h0.1
		c0.8-1.7,1.6-3.5,2.4-5.2L126.8,28.7z"/>
	<path class="st1" d="M143.4,20.9c2.3,0,4.4,0.6,6.2,1.5v2.2c-1.7-1.1-3.9-1.8-6.2-1.8c-6,0-10.1,4.4-10.1,10.1S137.4,43,143.5,43
		c2.4,0,4.7-0.7,6.5-2v2.2c-1.8,1.1-4.2,1.7-6.6,1.7c-7.1,0-12.1-5.2-12.1-11.9C131.3,26.3,136.1,20.9,143.4,20.9z"/>
	<path class="st1" d="M154.4,38.2v-9.5h1.9v9.2c0,2,0.3,3.2,1,4c0.7,0.8,1.8,1.2,3,1.2c2.2,0,4.2-1.3,5.7-2.9V28.7h1.9v15.7H166
		v-2.2l-0.1,0c-1.5,1.4-3.5,2.6-6,2.6c-1.6,0-3.1-0.5-4.1-1.7C154.8,42,154.4,40.6,154.4,38.2z"/>
	<path class="st1" d="M173.4,28.7h1.9v2.6l0.1,0c1.2-1.6,3-2.8,5.1-2.8c0.4,0,0.6,0,0.9,0.1v1.8c-0.3-0.1-0.6-0.1-1-0.1
		c-2.1,0-3.8,1.2-5.1,3.1v11h-1.9V28.7z"/>
	<path class="st1" d="M185.6,24.7c-0.8,0-1.4-0.6-1.4-1.5c0-0.8,0.6-1.4,1.5-1.4c0.8,0,1.4,0.6,1.4,1.5
		C187,24,186.4,24.7,185.6,24.7z M184.6,28.7h1.9v15.7h-1.9V28.7z"/>
	<path class="st1" d="M199.1,28.4c4.7,0,8.2,3.6,8.2,8.2s-3.5,8.2-8.2,8.2c-4.7,0-8.2-3.6-8.2-8.2S194.4,28.4,199.1,28.4z
		 M199.1,43.1c3.6,0,6.3-2.8,6.3-6.5c0-3.7-2.7-6.5-6.3-6.5c-3.6,0-6.3,2.8-6.3,6.5C192.8,40.3,195.5,43.1,199.1,43.1z"/>
	<path class="st1" d="M207.5,21.3h2.1l4.1,13.1c0.7,2.2,1.6,5.1,2.1,7h0.1c0.6-1.9,1.5-4.8,2.2-7.1l4.1-13.1h1.4l4.2,13.4
		c0.6,2,1.5,4.8,2.1,6.8h0.1c0.6-2,1.4-4.8,2-6.7l4.2-13.4h2L231,44.4h-2l-4.2-13.4c-0.5-1.7-1.3-4.3-1.8-5.9h-0.1
		c-0.5,1.6-1.3,4.2-1.8,5.8l-4.3,13.5h-2.1L207.5,21.3z"/>
	<path class="st1" d="M240.2,43.7c-1-0.8-1.6-1.9-1.6-3.4c0-1.7,0.8-2.8,2-3.6c1.2-0.8,2.8-1.1,4.3-1.1c1.4,0,2.8,0.2,4.1,0.6v-1.8
		c0-1.5-0.3-2.5-1.2-3.3c-0.7-0.6-1.8-1-3.2-1c-1.9,0-3.6,0.6-4.8,1.5v-1.9c1.3-0.8,3-1.4,5-1.4c1.9,0,3.4,0.5,4.5,1.4
		s1.6,2.3,1.6,4.2v6.8c0,1.3,0.3,2.3,1.6,2.3c0.4,0,0.7-0.1,1-0.3v1.6c-0.4,0.2-0.8,0.3-1.4,0.3c-1.3,0-2.4-0.6-2.8-1.9h-0.1
		c-1.2,1-3.1,2-5.2,2C242.6,44.8,241.3,44.5,240.2,43.7z M249,41.2v-3.6c-1.2-0.4-2.6-0.6-3.9-0.6c-2.2,0-4.5,0.7-4.5,3
		c0,2,1.8,2.9,3.7,2.9C246,43.1,247.7,42.3,249,41.2z"/>
	<path class="st1" d="M256.7,20h1.9v24.4h-1.9V20z"/>
	<path class="st1" d="M264.1,20h1.9v24.4h-1.9V20z"/>
	<path class="st1" d="M272.3,37.1c0.3,3.7,3,6,6.7,6c2.1,0,3.8-0.8,5.3-1.8v2c-1.4,0.9-3.5,1.5-5.4,1.5c-4.8,0-8.4-3.3-8.4-8.2
		c0-4.9,3.5-8.2,7.8-8.2c3.8,0,7,2.7,7,7.4c0,0.5,0,1-0.1,1.3H272.3z M272.4,35.5h11c-0.1-4.2-3.1-5.5-5.2-5.5
		C275.5,30,272.9,31.9,272.4,35.5z"/>
	<path class="st1" d="M290.6,39.1v-8.7h-3.1v-1.7h3.1v-4.4l1.9-0.3v4.7h5.1v1.7h-5.1v8.4c0,2.4,0.4,4.3,2.8,4.3
		c0.8,0,1.6-0.2,2.2-0.6v1.8c-0.6,0.3-1.5,0.5-2.5,0.5c-1.2,0-2.5-0.3-3.4-1.3C290.9,42.5,290.6,41.1,290.6,39.1z"/>
</g>
<path class="st1" d="M57.6,34.1c-0.9-1.6-1.9-3.2-3.2-4.7c0.8-3,1.9-7,2-7.5c0.5-1.9,0-3.8-1.3-5.2c-1-1.1-2.5-1.7-3.9-1.7
	c-1.4,0-2.7,0.5-3.7,1.5l-4.1,3.9c0,0,0,0,0,0c-2.4-1.2-4.8-1.8-6.8-1.8c-2.1,0-4.4,0.6-6.8,1.8c0,0,0,0,0,0l-4.1-3.9
	c-1-1-2.3-1.5-3.7-1.5c-1.5,0-2.9,0.6-3.9,1.7c-1.3,1.4-1.8,3.4-1.3,5.2c0.1,0.4,1.2,4.5,2,7.5c-1.2,1.5-2.3,3.1-3.2,4.7
	c-1.6,3-2.4,5.8-2.4,8.5v1.3c0,0,0,0,0,0l23.5,9.3c0,0,0,0,0,0l23.5-9.3c0,0,0,0,0,0v-1.3C60.1,39.9,59.2,37.1,57.6,34.1z
	 M20.6,19.3c0.3-0.4,0.8-0.6,1.3-0.6c0.5,0,0.9,0.2,1.2,0.5l3.3,3.1c0,0,0,0,0,0c-1.7,1.1-3.3,2.4-4.8,3.9c0,0,0,0,0,0
	c-0.7-2.5-1.3-4.9-1.4-5.2C20.1,20.4,20.2,19.7,20.6,19.3z M21.2,32.1C21.2,32.1,21.2,32.1,21.2,32.1l4.4,0c2,0,3.8,1.4,4.2,3.3
	c0.6,2.8-1.5,5.3-4.1,5.3c0,0-8.8,0-8.8,0c0,0,0,0,0,0C17.4,38,18.9,35,21.2,32.1z M25.8,44.4c4.7,0,8.5-4.3,7.7-9.4
	c-0.6-3.9-4.1-6.7-7.9-6.7h-0.9c3.4-3.1,7.1-5.3,10.2-5.9l0,5.3c0,0,0,0,0,0h3.6c0,0,0,0,0,0l0-5.3c3.1,0.7,6.8,2.8,10.2,5.9h-0.9
	c-3.9,0-7.3,2.8-7.9,6.7c-0.8,5,3,9.4,7.7,9.4h1.2l-12,4.8c0,0,0,0,0,0l-12-4.8H25.8z M52.5,19.3c0.4,0.5,0.6,1.1,0.4,1.7
	c-0.1,0.3-0.7,2.8-1.4,5.2c0,0,0,0,0,0c-1.6-1.5-3.2-2.8-4.8-3.9c0,0,0,0,0,0c0,0,3.3-3.1,3.3-3.1c0.3-0.3,0.8-0.5,1.2-0.5
	C51.7,18.7,52.2,18.9,52.5,19.3z M47.6,32.1l4.4,0c0,0,0,0,0,0c2.3,2.9,3.8,5.9,4.3,8.6c0,0,0,0,0,0c0,0-8.8,0-8.8,0
	c-2.6,0-4.7-2.5-4.1-5.3C43.7,33.5,45.6,32.1,47.6,32.1z"/>
<ellipse class="st1" cx="26.4" cy="36.4" rx="1.8" ry="1.8"/>
<path class="st1" d="M39,43.8c0-0.7-0.5-1.2-1.2-1.2h-1.2h-1.2c-0.7,0-1.2,0.6-1.2,1.2c0,1.2,2.4,2.5,2.4,2.5S39,45.1,39,43.8z"/>
<ellipse class="st1" cx="46.8" cy="36.4" rx="1.8" ry="1.8"/>
</svg>
