<?xml version="1.0" encoding="utf-8"?>
<!-- Generator: Adobe Illustrator 21.1.0, SVG Export Plug-In . SVG Version: 6.00 Build 0)  -->
<svg version="1.1" id="Layer_1" xmlns="http://www.w3.org/2000/svg" xmlns:xlink="http://www.w3.org/1999/xlink" x="0px" y="0px"
	 viewBox="0 0 315 70" style="enable-background:new 0 0 315 70;" xml:space="preserve">
<style type="text/css">
	.st0{fill:url(#SVGID_1_);}
	.st1{fill:#FFFFFF;}
	.st2{clip-path:url(#SVGID_3_);}
	.st3{opacity:0.2;fill:#FFFFFF;enable-background:new    ;}
</style>
<title>MyEtherWalelt Logo</title>
<linearGradient id="SVGID_1_" gradientUnits="userSpaceOnUse" x1="4.8" y1="35" x2="68.8" y2="35">
	<stop  offset="0" style="stop-color:#F24645"/>
	<stop  offset="1" style="stop-color:#EBC08D"/>
</linearGradient>
<circle class="st0" cx="36.8" cy="35" r="32"/>
<path class="st1" d="M23.8,27.5"/>
<g>
	<g>
		<defs>
			<circle id="SVGID_2_" cx="36.8" cy="35" r="32"/>
		</defs>
		<clipPath id="SVGID_3_">
			<use xlink:href="#SVGID_2_"  style="overflow:visible;"/>
		</clipPath>
		<g class="st2">
			<path class="st3" d="M65.7,35.3l-10,24.5l-5.3-12.5l4.8-11.8h-2.6l-3.9,9.8l-3.9-9.8h-2.6L47,47.3l-5.3,12.5l-10-24.5l-5-11.9
				l5.2-12.5l10,24.5h3L33.1,7.7h-2.4l-5.8,13.6L19,7.7h-2.4L5,35.4h2.9L18,10.9l5.3,12.5l-4.8,11.8H21l3.9-9.8l3.9,9.9L40.5,63h2.4
				l5.8-13.7L54.5,63H57l11.7-27.7H65.7z"/>
		</g>
	</g>
</g>
<g>
	<path class="st1" d="M94.8,23.8c2.3,0,4.4,0.6,6.2,1.5v2.2c-1.7-1.1-3.9-1.8-6.2-1.8c-6,0-10.1,4.4-10.1,10.1s4.1,10.1,10.2,10.1
		c2.4,0,4.7-0.7,6.5-2v2.2c-1.8,1.1-4.2,1.7-6.6,1.7c-7.1,0-12.1-5.2-12.1-11.9C82.7,29.2,87.5,23.8,94.8,23.8z"/>
	<path class="st1" d="M105.8,41.1v-9.5h1.9v9.2c0,2,0.3,3.2,1,4s1.8,1.2,3,1.2c2.2,0,4.2-1.3,5.7-2.9V31.6h1.9v15.7h-1.9v-2.2h-0.1
		c-1.5,1.4-3.5,2.6-6,2.6c-1.6,0-3.1-0.5-4.1-1.7C106.2,44.9,105.8,43.5,105.8,41.1z"/>
	<path class="st1" d="M124.8,31.6h1.9v2.6h0.1c1.2-1.6,3-2.8,5.1-2.8c0.4,0,0.6,0,0.9,0.1v1.8c-0.3-0.1-0.6-0.1-1-0.1
		c-2.1,0-3.8,1.2-5.1,3.1v11h-1.9V31.6z"/>
	<path class="st1" d="M137,27.6c-0.8,0-1.4-0.6-1.4-1.5c0-0.8,0.6-1.4,1.5-1.4c0.8,0,1.4,0.6,1.4,1.5
		C138.4,26.9,137.8,27.6,137,27.6z M136,31.6h1.9v15.7H136V31.6z"/>
	<path class="st1" d="M150.5,31.3c4.7,0,8.2,3.6,8.2,8.2s-3.5,8.2-8.2,8.2s-8.2-3.6-8.2-8.2S145.8,31.3,150.5,31.3z M150.5,46
		c3.6,0,6.3-2.8,6.3-6.5s-2.7-6.5-6.3-6.5s-6.3,2.8-6.3,6.5S146.9,46,150.5,46z"/>
	<path class="st1" d="M158.9,24.2h2.1l4.1,13.1c0.7,2.2,1.6,5.1,2.1,7h0.1c0.6-1.9,1.5-4.8,2.2-7.1l4.1-13.1h1.4l4.2,13.4
		c0.6,2,1.5,4.8,2.1,6.8h0.1c0.6-2,1.4-4.8,2-6.7l4.2-13.4h2l-7.2,23.1h-2l-4.2-13.4c-0.5-1.7-1.3-4.3-1.8-5.9h-0.1
		c-0.5,1.6-1.3,4.2-1.8,5.8l-4.3,13.5h-2.1L158.9,24.2z"/>
	<path class="st1" d="M191.6,46.6c-1-0.8-1.6-1.9-1.6-3.4c0-1.7,0.8-2.8,2-3.6s2.8-1.1,4.3-1.1c1.4,0,2.8,0.2,4.1,0.6v-1.8
		c0-1.5-0.3-2.5-1.2-3.3c-0.7-0.6-1.8-1-3.2-1c-1.9,0-3.6,0.6-4.8,1.5v-1.9c1.3-0.8,3-1.4,5-1.4c1.9,0,3.4,0.5,4.5,1.4
		c1.1,0.9,1.6,2.3,1.6,4.2v6.8c0,1.3,0.3,2.3,1.6,2.3c0.4,0,0.7-0.1,1-0.3v1.6c-0.4,0.2-0.8,0.3-1.4,0.3c-1.3,0-2.4-0.6-2.8-1.9
		h-0.1c-1.2,1-3.1,2-5.2,2C194,47.7,192.7,47.4,191.6,46.6z M200.4,44.1v-3.6c-1.2-0.4-2.6-0.6-3.9-0.6c-2.2,0-4.5,0.7-4.5,3
		c0,2,1.8,2.9,3.7,2.9C197.4,46,199.1,45.2,200.4,44.1z"/>
	<path class="st1" d="M208.1,22.9h1.9v24.4h-1.9V22.9z"/>
	<path class="st1" d="M215.5,22.9h1.9v24.4h-1.9V22.9z"/>
	<path class="st1" d="M223.7,40c0.3,3.7,3,6,6.7,6c2.1,0,3.8-0.8,5.3-1.8v2c-1.4,0.9-3.5,1.5-5.4,1.5c-4.8,0-8.4-3.3-8.4-8.2
		s3.5-8.2,7.8-8.2c3.8,0,7,2.7,7,7.4c0,0.5,0,1-0.1,1.3H223.7z M223.8,38.4h11c-0.1-4.2-3.1-5.5-5.2-5.5
		C226.9,32.9,224.3,34.8,223.8,38.4z"/>
	<path class="st1" d="M242,42v-8.7h-3.1v-1.7h3.1v-4.4l1.9-0.3v4.7h5.1v1.7h-5.1v8.4c0,2.4,0.4,4.3,2.8,4.3c0.8,0,1.6-0.2,2.2-0.6
		v1.8c-0.6,0.3-1.5,0.5-2.5,0.5c-1.2,0-2.5-0.3-3.4-1.3C242.3,45.4,242,44,242,42z"/>
</g>
<g>
	<path class="st1" d="M19.1,18.6c1.2-1.1,2.9-1.8,4.6-1.7c0.5,0,1.1,0.1,1.6,0.2c1,0.2,1.8,0.8,2.6,1.4c0.4,0.2,0.6,0.7,1,0.9
		c0.5,0.4,0.8,0.9,1.3,1.2c0.2,0.2,0.4,0.4,0.7,0.7c1.2-0.6,2.5-0.8,3.8-1.1c1-0.2,1.9-0.2,2.9-0.1c0.5,0.1,1.1,0.1,1.6,0.2
		c1.1,0.3,2.2,0.6,3.3,1c0.6-0.5,1.2-1.1,1.8-1.7c0.5-0.4,0.9-1,1.5-1.3c2.3-1.9,5.8-1.9,8.1-0.1c1,0.8,1.9,1.9,2.3,3.2
		c0.2,0.6,0.2,1.3,0.4,2c-0.1,0.9-0.2,1.7-0.5,2.5c-0.4,1.6-0.9,3.3-1.3,4.9c0.6,0.8,1.2,1.7,1.8,2.5c0.8,1.3,1.5,2.6,2,4
		c0.2,0.8,0.5,1.5,0.7,2.3c0.1,0.8,0.3,1.5,0.3,2.3c0.1,0.8,0.2,1.7-0.1,2.5c-0.3,0.5-0.7,0.9-1.2,1.1c-0.4,0.1-0.8,0.4-1.3,0.5
		c-4.5,1.8-9,3.5-13.5,5.2c-0.8,0.4-1.6,0.6-2.3,0.9c-0.8,0.3-1.7,0.6-2.5,1c-0.6,0.2-1.2,0.5-1.9,0.6c-1.4-0.2-2.6-0.9-3.9-1.3
		c-4.5-1.8-9-3.5-13.5-5.3c-1.3-0.5-2.5-1-3.8-1.5c-0.6-0.2-1.2-0.5-1.4-1.1C14.1,44.3,14,44,14,43.8c0-1,0-2,0.1-3
		c0.3-1.7,0.8-3.5,1.6-5c0.4-0.8,0.9-1.6,1.3-2.4c0.2-0.3,0.4-0.6,0.6-0.9c0.4-0.5,0.7-1,1.1-1.5c-0.2-0.9-0.5-1.7-0.7-2.6
		c-0.2-0.8-0.4-1.6-0.6-2.3c-0.3-0.8-0.4-1.7-0.5-2.6c0.1-0.8,0.3-1.7,0.6-2.5C17.9,20.1,18.4,19.2,19.1,18.6 M21.6,19
		c-1,0.5-1.8,1.2-2.3,2.2c-0.5,1-0.7,2.2-0.4,3.3c0.1,0.6,0.3,1.1,0.4,1.7c0.2,0.4,0.2,0.8,0.3,1.1c0.1,0.5,0.2,1,0.4,1.4
		c0.1,0.5,0.2,1,0.4,1.4c0.1,0.4,0.2,0.8,0.3,1.2c-0.1,0.1-0.2,0.2-0.2,0.2c-0.2,0.4-0.6,0.7-0.8,1.1c-0.2,0.3-0.5,0.6-0.6,0.9
		c0.6,0,1.2,0,1.8,0c0.6,0.1,1.2,0.1,1.8,0c1.5,0,3,0,4.5,0c0.4,0,0.7,0.1,1.1,0.1c0.5,0.2,1.1,0.5,1.5,1c0.9,0.7,1.2,1.9,1.2,3
		c0,0-0.1,0.1-0.1,0.2c0,0.4-0.2,0.9-0.3,1.3c-0.1,0.2-0.3,0.4-0.5,0.6c0.2-0.1,0.5-0.3,0.6-0.4c0.4-0.2,0.8-0.5,1.3-0.6
		c0.2-0.1,0.4-0.2,0.7-0.3c0.8-0.2,1.7-0.5,2.5-0.6c0.8-0.2,1.6-0.1,2.4-0.1c0.3,0,0.6,0.1,0.9,0.1c0.3,0,0.6,0.2,0.9,0.1
		c0.2,0.1,0.5,0.1,0.7,0.2c0.6,0.2,1.1,0.4,1.7,0.6c0.2,0.1,0.4,0.2,0.6,0.3l0,0.1c0.2,0.1,0.5,0.2,0.7,0.4c0.1,0.1,0.2,0.1,0.3,0.2
		c0.2,0.2,0.5,0.3,0.8,0.5c-0.4-0.3-0.7-0.7-1-1.1c-0.2-0.4-0.3-0.7-0.4-1.1c-0.1-0.8,0-1.7,0.4-2.4c0.3-0.4,0.6-1,1.1-1.2
		c0.4-0.4,0.8-0.5,1.3-0.7c0.4-0.1,0.8-0.1,1.2-0.1c1.7,0,3.3,0,5,0c1,0,1.9,0,2.9-0.1c-0.5-0.8-1.1-1.5-1.7-2.2
		c0.7-2.3,1.2-4.6,1.9-6.8c0.1-0.3-0.1-0.7,0.1-0.9c-0.2-0.3-0.1-0.6-0.1-0.9c-0.1-0.5-0.2-0.9-0.5-1.3c-0.1-0.2-0.2-0.4-0.4-0.6
		c-0.4-0.5-0.8-1-1.4-1.3c-0.2-0.2-0.5-0.3-0.8-0.4c-0.3-0.2-0.7-0.1-1-0.3c-0.4,0-0.8,0-1.2,0c-0.8,0.1-1.5,0.4-2.1,0.8
		c-0.1,0.1-0.3,0.2-0.4,0.3c-0.7,0.6-1.4,1.3-2.1,1.9c-0.5,0.4-0.9,0.8-1.3,1.2c-0.2,0.2-0.4,0.4-0.5,0.6c-0.2-0.1-0.4-0.1-0.5-0.2
		c-1-0.5-2.1-0.8-3.2-1.1c0,2.9,0,5.9,0,8.8c-1.7,0-3.4,0-5.1,0c0-2.9,0-5.8,0-8.8c-0.5,0.2-1.1,0.3-1.6,0.5c-0.1,0-0.2,0-0.3,0
		c-0.2,0.1-0.4,0.2-0.7,0.3c-0.4,0.1-0.7,0.3-1.1,0.5c-0.3-0.4-0.7-0.7-1.1-1c-0.2-0.2-0.4-0.4-0.7-0.6c-0.4-0.3-0.7-0.7-1-1
		c-0.4-0.3-0.7-0.7-1.1-1c-0.6-0.5-1.4-0.9-2.3-1l-0.1-0.1c-0.4,0-0.9,0-1.3,0C22.5,18.7,22,18.9,21.6,19 M24.5,36.3
		c-0.1,0.1-0.1,0.2-0.2,0.3c0,0.2-0.2,0.5-0.2,0.7c0,0.3,0.1,0.5,0.2,0.7c0.1,0.1,0.1,0.2,0.2,0.3c0.2,0.2,0.4,0.4,0.6,0.5
		c0.6,0.2,1.4,0.2,2-0.1c0-0.3,0-0.7,0-1c-0.2,0.1-0.3,0.2-0.4,0.3c-0.2,0-0.5,0.2-0.7,0.1c-0.3-0.1-0.6-0.4-0.7-0.7
		c-0.1-0.4,0.3-0.8,0.6-1c0.3-0.1,0.5,0.1,0.7,0.1c0.1,0.1,0.3,0.1,0.4,0.2c0-0.3,0.1-0.8-0.1-1.1C26.2,35.4,25,35.6,24.5,36.3
		 M46.2,36.3c-0.1,0.1-0.1,0.2-0.2,0.3c-0.1,0.3-0.2,0.6-0.1,0.9c0,0.2,0.1,0.4,0.1,0.6c0.1,0.1,0.1,0.2,0.2,0.3
		c0.2,0.2,0.4,0.4,0.6,0.5c0.6,0.2,1.4,0.2,2-0.1c0-0.3,0-0.7,0-1c-0.2,0.1-0.3,0.2-0.4,0.3c-0.2,0-0.5,0.2-0.7,0.1
		c-0.3-0.1-0.6-0.4-0.7-0.7c-0.1-0.4,0.3-0.8,0.6-1c0.3-0.1,0.5,0.1,0.7,0.1c0.1,0.1,0.3,0.1,0.4,0.2c0-0.3,0.1-0.8-0.1-1.1
		C47.9,35.4,46.8,35.6,46.2,36.3 M35.2,39.2c-0.6,0.1-1.2,0.2-1.9,0.4c-0.2,0.1-0.3,0.1-0.5,0.2c-0.4,0.1-0.7,0.3-1.1,0.5
		c-0.2,0.2-0.5,0.3-0.7,0.4c-0.6,0.3-1.1,0.9-1.6,1.4c-0.2,0.2-0.4,0.3-0.4,0.6c-0.1,0.1-0.2,0.2-0.3,0.4c-0.2,0.3-0.3,0.6-0.5,0.9
		c-0.2,0.6-0.3,1.2-0.4,1.9c0,0.8,0.2,1.7,0.5,2.4l0.1,0c0,0.1,0,0.2,0,0.2l0.1,0c0.1,0.2,0.2,0.4,0.4,0.6c0.6,0.3,1.2,0.5,1.8,0.7
		c2,0.8,4.1,1.6,6.1,2.4c0.4-0.2,0.9-0.3,1.3-0.5c1-0.4,2-0.7,3-1.2c0.8-0.3,1.5-0.6,2.3-0.9c0.3-0.1,0.6-0.2,0.8-0.3
		c0.3-0.2,0.5-0.5,0.6-0.9l0.1,0c0.2-0.6,0.5-1.2,0.5-1.8c0-0.8,0.1-1.5-0.2-2.2c0-0.1-0.1-0.3-0.1-0.4c-0.1-0.3-0.3-0.6-0.5-0.9
		c-0.5-0.8-1.2-1.6-2.1-2.1c-0.1-0.1-0.3-0.2-0.5-0.3c-0.4-0.3-0.9-0.4-1.3-0.6c-0.7-0.2-1.4-0.5-2.1-0.6c-0.5-0.2-0.9-0.1-1.4-0.2
		C36.5,39,35.8,39.2,35.2,39.2 M43.7,40.1c0.8,0.5,1.4,1.3,1.9,2c0.1,0.2,0.3,0.4,0.3,0.6l0.1,0c0.1,0.3,0.2,0.6,0.4,0.9
		c0,0.2,0.1,0.3,0.1,0.5c0.1,0.8,0.4,1.7,0.2,2.5c-0.1,0.6-0.2,1.2-0.5,1.8c0.2-0.1,0.5-0.2,0.7-0.3c0.2-0.1,0.4-0.1,0.5-0.2
		c0.2-0.1,0.4-0.2,0.6-0.3c1.3-0.5,2.7-1.1,4-1.5c0.2-0.1,0.4-0.2,0.6-0.3c0.7-0.3,1.4-0.5,2.1-0.8c0.6-0.2,1.1-0.4,1.7-0.6
		c0.4-0.2,0.9-0.3,1.3-0.5c0.2-0.4,0-0.8,0.1-1.2c-0.3-0.4-0.1-0.9-0.2-1.3c0,0-0.1-0.1-0.1-0.1c-0.8,0-1.7,0-2.5-0.1
		c-0.7,0-1.4,0.1-2.1,0.1c-2.4,0-4.9,0.1-7.3-0.1C45,41,44.3,40.5,43.7,40.1 M28,41.1c-1,0.2-2.1,0.1-3.1,0.1c-2.5,0-5.1,0-7.6,0.1
		c-0.5,0-1,0.1-1.5,0.1c0,0.1-0.1,0.2-0.1,0.2c0,0.7,0,1.4,0,2.1c-0.1,0.2,0.2,0.2,0.3,0.3c0.3,0.1,0.5,0.2,0.8,0.3
		c2,0.7,4,1.5,6,2.3c0.2,0.1,0.4,0.1,0.6,0.3c0.6,0.2,1.1,0.4,1.7,0.6c0.6,0.2,1.2,0.6,1.9,0.7c-0.2-0.5-0.3-1-0.4-1.6
		c0-0.7-0.1-1.4,0.1-2.1c0.1-0.6,0.4-1.2,0.6-1.8l0.1,0c0,0,0-0.1,0-0.2c0.1-0.2,0.2-0.3,0.3-0.5c0.1-0.1,0.1-0.2,0.2-0.3
		c0.3-0.3,0.5-0.6,0.8-0.9C28.4,41,28.2,41.1,28,41.1 M22.7,22c0.3-0.2,0.7-0.1,1.1-0.2c0.2,0,0.4,0,0.5,0.1
		c0.5,0.3,0.9,0.8,1.3,1.2c0.4,0.3,0.7,0.7,1.1,1c0.3,0.3,0.6,0.6,0.9,0.9c-0.2,0.1-0.4,0.3-0.6,0.4c-0.7,0.5-1.4,0.9-2,1.5
		c-0.7,0.5-1.3,1.1-1.9,1.6c-0.1-0.2-0.2-0.5-0.3-0.7c-0.3-1.3-0.7-2.6-1-3.8c0-0.4,0-0.7,0-1.1C22.1,22.5,22.4,22.2,22.7,22
		 M49.4,21.8c0.4,0,0.7,0,1.1,0c0.2,0.1,0.4,0.3,0.6,0.4c0.2,0.2,0.4,0.5,0.5,0.8c0,0.3,0,0.6,0,0.9c-0.2,0.2-0.2,0.5-0.3,0.7
		c-0.4,1.3-0.7,2.6-1.1,3.8c0,0-0.1,0-0.1,0c-0.5-0.7-1.2-1.1-1.8-1.7c-0.3-0.2-0.6-0.5-0.9-0.6c-0.2-0.1-0.3-0.3-0.5-0.4
		c-0.3-0.2-0.6-0.4-0.8-0.6c-0.1-0.1-0.2-0.2-0.3-0.3c0.1-0.1,0.1-0.2,0.2-0.3c0.6-0.5,1.2-1.1,1.7-1.6c0.4-0.4,0.9-0.8,1.3-1.2
		C49.2,22,49.3,21.9,49.4,21.8 M34.9,43c0.2-0.2,0.5-0.4,0.8-0.4c0.8,0,1.6,0,2.3,0c0.4,0.1,0.6,0.4,0.9,0.7c0,0.3,0,0.6,0,1
		c-0.3,0.5-0.8,1-1.3,1.3c-0.3,0.2-0.6,0.5-1.1,0.4c-0.1-0.1-0.3-0.2-0.4-0.3c-0.5-0.3-1.1-0.7-1.4-1.3c-0.2-0.2-0.1-0.5-0.2-0.8
		C34.5,43.4,34.7,43.2,34.9,43L34.9,43z"/>
</g>
</svg>
